<svg width="1200" height="1200" xmlns="http://www.w3.org/2000/svg" xmlns:xlink="http://www.w3.org/1999/xlink" version="1.1"><g transform="scale(7.190322351579412) translate(-1.4301336076524525, -0.8561055925157337)">                        <g fill="#111111"><path xmlns="http://www.w3.org/2000/svg" d="m151.9 63.78 1.63 4.84q.11.35-.24.45l-28.92 7.71a.21.2 42.3 0 0 .02.4c5.11.87 5.95 4.74 5.98 9.63.03 4.57-.16 8.45.73 12.2q.37 1.53 1.02 4.36c1.33 5.69.45 11.74 1.3 17.89q.34 2.45.7 5.12.07.54-.4.81l-.84.49q-.56.32-.17.83c2.2 2.94 8.83 11.45 12.42 12.15 3.62.7 7.03 1.01 6.51 5.38q-.06.5-.47.81c-2.98 2.22-7.65 1.79-10.95.97q-2.08-.52-12.28-3.15-4.6-1.19-9.66-4.01a.39.39 0 0 0-.57.3c-.52 4.69 4.11 8.91 7.73 10 3.15.95 8.48 1.08 9.02 5.29.63 4.92-11.61 2.8-14 2.06-3.15-.98-6.98-3.45-10.77-3.87q-3.32-.37-6.09-1.16a1.55 1.55 0 0 1-1.12-1.67c.27-2.31.92-4.2 2.09-6.69q2.98-6.28 1.42-13.65c-.24-1.13 1.1-2.88 1.12-4.39q.07-4.61.08-11.62 0-3.04 1.36-5.92a.86.85-67.8 0 0-.49-1.18c-7.75-2.74-16.88-2.47-25.7-2.03q-.59.02-.59.61v3.29q0 .55-.55.55H56.5a.33.32-5.6 0 0-.33.39l8.5 45.76q.16.86-.72.86H61.5q-.52 0-.61-.51l-3.42-18.37a.77.77 0 0 0-.76-.64H23.5a.51.51 0 0 0-.5.43l-3.19 18.95a.63.63 0 0 1-.72.52l-2.53-.43a.44.44 0 0 1-.36-.5l7.74-46.06q.09-.53-.45-.53h-6.3a.57.56 0 0 1-.57-.56v-3.85q0-.53.53-.53h13.79q.5 0 .5-.49.06-10.71.01-20.31-.01-2.38-.98-4.36-.6-1.23-3.84-7.8-.28-.57.31-.83l5.86-2.64q.45-.2.65.25l5.2 11.59q.53 1.18 1.82 1.04.43-.04.6-.06a.67.66-15.6 0 0 .53-.93L35.69 67.6q-.02-.04.02-.06l.24-.1q.21-.1.3.12l6.51 14.48q.14.31.48.31h2.51a.58.58 0 0 1 .58.58v22.1a.44.44 0 0 0 .44.44h16.7q1.77 0 .21-.85c-5.73-3.11-7.13-9.56-6.78-15.71q.02-.52-.37-.86c-3.51-3.02-3.66-5.15-2.85-9.52.9-4.87.82-9.97.96-14.73.3-9.34 1.74-17.5 5.46-26.18q1.15-2.68 4.67-5.58 4.89-4.02 7.57-7.55.35-.46.91-.36l.68.11q.49.09.72-.37.29-.59.67-.94a.64.64 0 0 1 .81-.04q1.48 1.07 2.32.45.52-.38.93-1.67 1.03-3.26 2.81-5.59c.64-.83.82-1.49.92-2.44q.06-.52.54-.73.51-.22 3.88-2.35c5.71-3.61 13.07.5 15.64 6.12 1.2 2.63.79 6.25 2.43 8.74q1.63 2.47 2.31 3.76.23.45.04.92c-1.16 2.85-5.45.42-6.69-1.19q-.29-.38-.65-.12l-2.74 1.97a1.03.65 89.9 0 0-.32.51l-1.1 3.67q-.18.59-.77.32l-.84-.39q-.46-.2-.88.03-1.68.89-2.92 2.45-.38.48-.96.38l-1.17-.2q-2.12-.35-.71 1.28.54.63.93 1.64a1.27 1.27 0 0 1 0 .9q-2.67 7.32 2.12 12.78.35.39.38.91c.18 2.37-.59 4.82 1.42 7q.32.35.79.31 8.1-.55 15.99 2.56.45.17.92.04c3.37-.92 8.42-1.74 11.28.57q1.95 1.57 3.36 3.07a.81.81 0 0 1-.38 1.34l-16.34 4.36a.42.4-3.6 0 0-.31.33l-.07.43a.03.03 0 0 0 .04.04l40.53-10.81q.48-.12.76-.52.65-.92 1.45-1.34.44-.22.68.21.09.14.01.43-.04.17.14.72M80.11 38.23l-.07-.25q-.02-.08-.16-.09c-5.22-.56-10.07 3.62-12.53 7.83q-.03.04-.02.08t.03.08a.12.08-45.4 0 0 .16-.03c2.74-3.77 7.42-7.82 12.46-7.42q.2.02.13-.2m-9.94 24.43q1.57 1.5 4.17 2.39 1.58.53.12-.27-2.5-1.36-3.81-2.62t-2.78-3.7q-.85-1.43-.25.12.98 2.57 2.55 4.08m-41.5 10.8 4.32 8.16a1.55 1.55 0 0 0 1.36.81h2.03q.64 0 .39-.55l-4.49-10q-.34-.74-1.17-.37l-2.07.93q-.73.33-.37 1.02m70.035 3.444a2.72.5-14.4 0 0-2.76.192 2.72.5-14.4 0 0-2.51 1.16 2.72.5-14.4 0 0 2.76-.192 2.72.5-14.4 0 0 2.51-1.16M89.41 86.98c-.16 1.37-2.01 3.07-2.9 3.87q-.56.5.11.16 3.21-1.64 3.2-5.05 0-.11-.13-.14a.14.12-80 0 0-.15.12q-.07.52-.13 1.04m-37.06 23.88a.48.48 0 0 0-.47-.39H27.99a.48.48 0 0 0-.48.4l-3.18 18.94a.48.48 0 0 0 .48.56h30.58a.48.48 0 0 0 .47-.57zm4.45 23.28a.8.8 0 0 0-.802-.798l-31.7.056a.8.8 0 0 0-.798.801v.24a.8.8 0 0 0 .802.799l31.7-.056a.8.8 0 0 0 .798-.801z"/><g xmlns="http://www.w3.org/2000/svg"><path d="M70.65 62.16q1.31 1.26 3.81 2.62 1.46.8-.12.27-2.6-.89-4.17-2.39-1.57-1.51-2.55-4.08-.6-1.55.25-.12 1.47 2.44 2.78 3.7M28.67 73.46q-.36-.69.37-1.02l2.07-.93q.83-.37 1.17.37l4.49 10q.25.55-.39.55h-2.03a1.55 1.55 0 0 1-1.36-.81z"/><ellipse rx="2.72" ry=".5" transform="rotate(-14.4 355.09 -341.446)"/><path d="M89.41 86.98q.06-.52.13-1.04a.14.12-80 0 1 .15-.12q.13.03.13.14.01 3.41-3.2 5.05-.67.34-.11-.16c.89-.8 2.74-2.5 2.9-3.87"/></g></g>        </g></svg>