<svg width="1200" height="1200" xmlns="http://www.w3.org/2000/svg" xmlns:xlink="http://www.w3.org/1999/xlink" version="1.1"><g transform="scale(46.17429883049734) translate(2.817325115203857, -4.276726722717285)">                        <g fill="#000000"><path d="M19.18 22.5488 c-0.50781 -0.42969 -1.0808 -0.64779 -1.7188 -0.65431 c-0.85286 -0.0065136 -1.5071 0.33528 -1.9629 1.0254 c-0.31901 0.48828 -0.40365 1.0417 -0.25392 1.6602 c0.15625 0.65104 0.52409 1.0352 1.1035 1.1523 c0.85286 0.16276 1.4388 -0.022783 1.7578 -0.55664 c0.065107 -0.11719 0.10417 -0.24414 0.11719 -0.38086 l0 0.0097656 l0.0097656 0 c0.0065136 0 0.0065136 0.0032521 0 0.0097656 c0.05208 0.38411 -0.045576 0.71614 -0.29297 0.99609 c-0.24739 0.26692 -0.54361 0.41666 -0.88866 0.44921 c-0.5013 0.045576 -1.0352 -0.01627 -1.6016 -0.18554 c-0.27995 -0.084639 -0.51758 -0.18555 -0.71289 -0.30273 c-1.0612 -0.76172 -1.8457 -2.0784 -2.3535 -3.9502 s-0.76172 -4.261 -0.76172 -7.168 s0.050459 -4.9968 0.15137 -6.2695 s0.31087 -2.2087 0.62988 -2.8076 l-4.9609 0 c0.20183 0.91146 0.32878 1.8587 0.38086 2.8418 c0.032549 0.69011 0.0097656 2.0052 -0.068359 3.9453 c-0.63151 0.065107 -1.2663 0 -1.9043 -0.19531 c-0.24739 -0.078125 -0.49153 -0.17253 -0.73242 -0.2832 c-0.1888 -0.091143 -0.37109 -0.19205 -0.54688 -0.30272 c0.058594 -1.4258 0.20508 -2.8516 0.43945 -4.2773 c0.071611 -0.44271 0.14974 -0.86263 0.23438 -1.2598 l0.039063 -0.19531 c0.013018 -0.05208 0.022783 -0.10091 0.029297 -0.14648 l0.019531 -0.048828 l0.0097656 -0.039063 l0 -0.029297 l0 -0.0097656 l-5.3418 0 c0.70964 2.8972 0.95378 6.0286 0.73242 9.3945 c-0.071611 1.1328 -0.19531 2.2331 -0.37109 3.3008 c-0.058594 0.39063 -0.1237 0.75195 -0.19531 1.084 c-0.05208 0.25391 -0.10091 0.46224 -0.14648 0.625 l5.5469 0 c-0.48177 -1.4714 -0.79427 -3.1022 -0.9375 -4.8926 c1.0872 0.55989 2.0931 0.70963 3.0176 0.44921 c0.39714 9.0169 3.1934 13.493 8.3887 13.428 c0.75521 -0.019531 1.4128 -0.11067 1.9727 -0.27344 c0.73567 -0.20833 1.3525 -0.70149 1.8506 -1.4795 s0.62012 -1.8278 0.36621 -3.1494 c-0.23438 -0.625 -0.58269 -1.1296 -1.0449 -1.5137 z"/></g>        </g></svg>